<?xml version="1.0" encoding="utf-8"?>
<!-- Generator: Adobe Illustrator 16.0.4, SVG Export Plug-In . SVG Version: 6.00 Build 0)  -->
<!DOCTYPE svg PUBLIC "-//W3C//DTD SVG 1.1//EN" "http://www.w3.org/Graphics/SVG/1.1/DTD/svg11.dtd">
<svg version="1.1" id="Ebene_1" xmlns="http://www.w3.org/2000/svg" xmlns:xlink="http://www.w3.org/1999/xlink" x="0px" y="0px"
	 width="360px" height="85px" viewBox="0 0 360 85" enable-background="new 0 0 360 85" xml:space="preserve">
<g>
	<g>
		<path d="M15.972,61.644C4.298,61.644,0,58.692,0,53.818c0-3.721,2.374-5.902,6.287-6.415v-0.706
			c-3.208-0.578-4.875-3.015-4.875-5.902c0-3.527,3.143-5.324,6.286-5.965v-0.257c-4.042-1.86-6.03-5.259-6.03-9.621
			c0-6.8,4.747-11.354,14.433-11.354c2.117,0,4.041,0.192,5.709,0.641v-1.283c0-3.528,1.86-5.067,5.067-5.067h5.324v7.056h-7.44
			v0.385c3.913,1.86,5.773,5.324,5.773,9.622c0,6.735-4.683,11.161-14.433,11.161c-2.245,0-4.233-0.256-5.966-0.706
			c-0.898,0.578-1.475,1.54-1.475,2.695c0,1.603,1.155,2.565,4.042,2.565h9.75c8.21,0,11.739,3.592,11.739,9.814
			C34.189,57.602,29.699,61.644,15.972,61.644z M20.078,48.75H8.532c-0.834,0.834-1.219,1.988-1.219,3.015
			c0,2.437,1.924,3.592,7.056,3.592h3.849c5.131,0,7.056-1.155,7.056-3.592C25.273,49.841,23.862,48.75,20.078,48.75z
			 M21.681,25.272v-0.769c0-2.95-1.86-4.618-5.58-4.618c-3.721,0-5.581,1.668-5.581,4.618v0.769c0,2.952,1.86,4.619,5.581,4.619
			C19.821,29.892,21.681,28.224,21.681,25.272z"/>
		<path d="M48.816,48.044c-6.479,0-9.43-3.271-9.43-9.236V0.578h9.494v40.09h4.233v7.376H48.816z"/>
		<path d="M57.669,31.174c0-10.648,5.645-17.575,15.78-17.575c11.161,0,15.651,8.082,15.651,17.19v2.822H67.483v0.514
			c0,4.425,2.373,7.248,7.44,7.248c3.977,0,6.158-1.861,8.275-4.042l4.747,5.901c-3.015,3.464-7.954,5.581-14.112,5.581
			C63.506,48.814,57.669,41.951,57.669,31.174z M67.483,27.518v0.513h11.802v-0.578c0-4.105-1.86-6.863-5.645-6.863
			S67.483,23.348,67.483,27.518z"/>
		<path d="M96.03,6.094V4.683C96.03,1.989,97.698,0,101.546,0s5.516,1.989,5.516,4.683v1.412c0,2.694-1.667,4.682-5.516,4.682
			S96.03,8.788,96.03,6.094z M96.799,14.368h9.494v33.676h-9.494V14.368z"/>
		<path d="M113.991,31.174c0-10.776,5.581-17.575,15.716-17.575c6.799,0,11.482,3.271,13.471,8.788l-7.698,3.335
			c-0.577-2.566-2.438-4.618-5.773-4.618c-3.849,0-5.837,2.758-5.837,6.992v6.286c0,4.233,1.989,6.992,5.837,6.992
			c3.784,0,5.324-2.374,6.286-5.067l7.376,3.207c-2.245,6.415-7.056,9.301-13.663,9.301
			C119.572,48.814,113.991,41.951,113.991,31.174z"/>
		<path d="M150.235,0.578h9.494v19.5h0.385c1.219-3.528,4.041-6.478,9.365-6.478c6.864,0,10.52,4.875,10.52,13.341v21.104h-9.493
			V27.711c0-4.298-1.219-6.415-4.683-6.415c-3.079,0-6.094,1.604-6.094,4.939v21.81h-9.494V0.578z"/>
		<path d="M186.672,42.784l5.58-5.644c2.373,2.629,5.26,4.297,8.917,4.297c3.72,0,5.002-1.219,5.002-3.207
			c0-1.668-1.025-2.502-3.398-2.823l-3.656-0.448c-7.633-0.962-11.354-4.298-11.354-10.392c0-6.479,5.067-10.969,13.085-10.969
			c7.056,0,10.327,1.924,13.727,5.259l-5.452,5.58c-2.118-2.116-4.938-3.463-7.762-3.463c-3.207,0-4.491,1.154-4.491,2.822
			c0,1.796,0.77,2.759,3.528,3.143l3.786,0.513c7.312,0.962,11.096,4.298,11.096,10.135c0,6.479-5.773,11.226-14.432,11.226
			C194.369,48.814,190.136,46.633,186.672,42.784z"/>
		<path d="M233.501,48.044c-6.543,0-10.008-3.399-10.008-9.814V21.745h-4.746v-7.377h2.373c2.566,0,3.336-1.283,3.336-3.592V5.26
			h8.531v9.108h6.67v7.377h-6.67v18.923h6.157v7.376H233.501z"/>
		<path d="M247.228,48.044V14.368h9.495v7.313h0.321c0.769-3.72,3.334-7.313,8.594-7.313h1.668v8.852h-2.373
			c-5.517,0-8.21,1.218-8.21,5.132v19.692H247.228z"/>
		<path d="M269.938,47.403l4.298-5.324c-1.733-2.887-2.63-6.544-2.63-10.905c0-10.841,5.9-17.575,15.779-17.575
			c3.271,0,6.094,0.769,8.467,2.181l3.849-4.618l5.132,3.848l-4.362,5.388c1.795,2.822,2.694,6.542,2.694,10.841
			c0,10.841-5.901,17.575-15.779,17.575c-3.271,0-6.159-0.77-8.467-2.116l-3.849,4.554L269.938,47.403z M281.164,34.317
			l10.263-12.316c-1.026-0.962-2.438-1.475-4.041-1.475c-3.913,0-6.222,3.015-6.222,7.569V34.317z M293.607,34.317v-6.286
			l-10.327,12.38c1.026,0.962,2.438,1.475,4.105,1.475C291.299,41.887,293.607,38.872,293.607,34.317z"/>
		<path d="M311.121,48.044V14.368h9.494v5.709h0.384c1.22-3.591,4.041-6.478,9.045-6.478c4.618,0,7.954,2.373,9.43,6.799h0.192
			c1.217-3.784,5.131-6.799,10.262-6.799c6.479,0,10.072,4.875,10.072,13.341v21.104h-9.495V27.711c0-4.363-1.474-6.415-4.618-6.415
			c-2.822,0-5.579,1.604-5.579,4.939v21.81h-9.495V27.711c0-4.363-1.538-6.415-4.618-6.415c-2.758,0-5.579,1.604-5.579,4.939v21.81
			H311.121z"/>
	</g>
	<g>
		<path d="M187.803,58.76v-0.533c0-1.142,0.648-1.942,2.133-1.942s2.133,0.8,2.133,1.942v0.533c0,1.143-0.648,1.943-2.133,1.943
			S187.803,59.903,187.803,58.76z M188.146,64.816h3.541v19.727h-3.541V64.816z"/>
		<path d="M198.243,84.543V64.816h3.541v3.237h0.189c0.915-2.171,2.591-3.694,5.561-3.694c4.036,0,6.513,2.78,6.513,7.578v12.605
			h-3.541V72.471c0-3.313-1.373-5.027-4.152-5.027c-2.322,0-4.569,1.181-4.569,3.58v13.52H198.243z"/>
		<path d="M233.236,81.306h-0.152C232.169,83.743,230.113,85,227.41,85c-4.951,0-7.921-3.922-7.921-10.321
			c0-6.397,2.97-10.319,7.921-10.319c2.703,0,4.759,1.257,5.674,3.694h0.152V56.361h3.541v28.182h-3.541V81.306z M233.236,78.297
			v-7.235c0-2.095-2.132-3.618-4.799-3.618c-3.161,0-5.18,2.248-5.18,5.56v3.351c0,3.313,2.019,5.561,5.18,5.561
			C231.104,81.915,233.236,80.392,233.236,78.297z"/>
		<path d="M255.515,81.306h-0.191C254.601,83.21,253.077,85,249.802,85c-4.036,0-6.55-2.78-6.55-7.578V64.816h3.541v12.072
			c0,3.313,1.41,5.026,4.189,5.026c2.246,0,4.532-1.143,4.532-3.618v-13.48h3.541v19.727h-3.541V81.306z"/>
		<path d="M263.983,81.191l2.398-2.057c1.485,1.866,3.314,2.933,5.712,2.933c2.514,0,3.885-1.104,3.885-2.933
			c0-1.446-0.762-2.476-3.16-2.818l-1.676-0.266c-3.771-0.534-6.397-2.095-6.397-5.751c0-3.884,3.007-5.94,7.159-5.94
			c3.352,0,5.446,1.18,7.122,3.161l-2.247,2.133c-0.954-1.257-2.628-2.362-4.99-2.362c-2.398,0-3.618,1.105-3.618,2.781
			c0,1.751,1.144,2.476,3.428,2.818l1.676,0.267c4.343,0.647,6.132,2.552,6.132,5.598c0,3.847-2.894,6.246-7.541,6.246
			C268.21,85,265.811,83.515,263.983,81.191z"/>
		<path d="M290.188,84.543c-2.438,0-3.733-1.447-3.733-3.732V67.824h-3.16v-3.008h1.75c1.334,0,1.753-0.496,1.753-1.829V59.37h3.198
			v5.446h4.229v3.008h-4.229v13.71h3.923v3.009H290.188z"/>
		<path d="M299.112,84.543V64.816h3.541v3.77h0.19c0.647-1.942,2.398-3.77,5.56-3.77h1.181v3.542h-1.752
			c-3.275,0-5.179,1.295-5.179,3.237v12.948H299.112z"/>
		<path d="M313.688,58.76v-0.533c0-1.142,0.647-1.942,2.134-1.942c1.483,0,2.132,0.8,2.132,1.942v0.533
			c0,1.143-0.648,1.943-2.132,1.943C314.335,60.703,313.688,59.903,313.688,58.76z M314.029,64.816h3.542v19.727h-3.542V64.816z"/>
		<path d="M322.936,74.679c0-6.245,3.465-10.319,8.95-10.319c5.521,0,8.644,4.188,8.644,9.711v1.484h-13.9v0.8
			c0,3.275,2.019,5.637,5.561,5.637c2.477,0,4.266-1.181,5.332-3.199l2.285,1.942c-1.372,2.552-4.229,4.266-7.921,4.266
			C326.4,85,322.936,80.925,322.936,74.679z M326.629,72.813v0.266h10.132v-0.381c0-3.275-1.905-5.483-4.875-5.483
			C328.801,67.215,326.629,69.576,326.629,72.813z"/>
		<path d="M344.238,81.191l2.398-2.057c1.486,1.866,3.314,2.933,5.713,2.933c2.514,0,3.884-1.104,3.884-2.933
			c0-1.446-0.762-2.476-3.159-2.818l-1.676-0.266C347.628,75.517,345,73.956,345,70.3c0-3.884,3.007-5.94,7.159-5.94
			c3.352,0,5.446,1.18,7.122,3.161l-2.247,2.133c-0.953-1.257-2.627-2.362-4.99-2.362c-2.398,0-3.618,1.105-3.618,2.781
			c0,1.751,1.144,2.476,3.429,2.818l1.676,0.267c4.342,0.647,6.131,2.552,6.131,5.598c0,3.847-2.894,6.246-7.541,6.246
			C348.466,85,346.065,83.515,344.238,81.191z"/>
	</g>
</g>
</svg>
